# Blender v3.0.1 OBJ File: ''
# www.blender.org
o Visor_Cube.002
v 0.175455 0.727196 0.174972
v 0.211351 0.566649 0.205552
v 0.015783 0.729585 0.352297
v -0.002610 0.516598 0.267016
v -0.108812 0.545962 0.329333
v -0.195764 0.719673 0.177869
v -0.186603 0.571695 0.176259
v 0.006486 0.754445 0.217606
v 0.241573 0.822626 0.034323
v 0.267472 0.029092 -0.021303
v 0.059011 0.006941 -0.015136
v 0.185964 0.184189 -0.158185
v 0.095496 0.153524 0.120321
v 0.189562 0.865267 -0.136627
v 0.108671 0.152288 -0.114496
v 0.116710 0.205051 0.209788
v -0.004361 0.859473 -0.213026
v -0.032343 0.947705 0.060142
v 0.178596 0.019588 0.122807
v 0.156104 0.037176 -0.113135
v 0.166246 0.503005 0.246274
v 0.031465 0.795810 0.214738
v 0.004079 0.282157 -0.243867
v -0.233297 0.027772 0.082492
v -0.155841 0.258496 0.232296
v -0.229311 0.772809 -0.129489
v -0.189850 0.173090 -0.135265
v -0.069746 0.142148 0.101493
v -0.216163 0.865317 -0.034009
v -0.097434 0.015611 0.095227
v -0.080286 0.020528 -0.084920
v -0.206849 0.672192 0.190219
v -0.248257 0.014389 -0.055450
v 0.200105 0.660987 -0.365407
v 0.224647 0.205661 -0.309087
v 0.000971 0.201709 -0.204022
v 0.203534 0.664562 -0.215571
v 0.177446 0.185113 -0.184594
v -0.082695 0.152369 -0.311659
v 0.023892 0.277794 -0.435455
v -0.210734 0.203383 -0.334828
v -0.183213 0.657034 -0.382669
v -0.193002 0.665462 -0.203195
v -0.194360 0.201196 -0.185063
v 0.153768 0.484492 0.235766
v 0.194652 0.762009 0.160499
v -0.084881 0.787519 0.225939
v 0.223771 0.550485 0.178354
v -0.138142 0.483982 0.247658
v -0.154369 0.781684 0.176955
v -0.246102 0.585011 0.152345
v 0.173586 0.558861 0.197468
v 0.012746 0.525116 0.248539
v 0.032348 0.511552 0.291026
v 0.116735 0.753007 0.229191
v 0.163626 0.723442 0.188873
v -0.129257 0.540561 0.238743
v -0.185460 0.710560 0.179045
v -0.174164 0.567005 0.191246
v 0.213260 0.610993 0.138096
vt 0.851157 0.610491
vt 0.755203 0.590007
vt 0.892184 0.573078
vt 0.761102 0.117163
vt 0.766653 0.013738
vt 0.816636 0.012994
vt 0.848416 0.092829
vt 0.844408 0.516069
vt 0.730982 0.562306
vt 0.778604 0.186003
vt 0.958198 0.606259
vt 0.220798 0.812844
vt 0.146547 0.799066
vt 0.256873 0.743523
vt 0.214412 0.634241
vt 0.202839 0.534890
vt 0.281926 0.519641
vt 0.769300 0.939805
vt 0.718577 0.935686
vt 0.737235 0.904867
vt 0.597011 0.511229
vt 0.690647 0.742317
vt 0.614153 0.737554
vt 0.596471 0.792869
vt 0.520869 0.826536
vt 0.775824 0.311133
vt 0.759272 0.257050
vt 0.785905 0.279378
vt 0.782746 0.206813
vt 0.815592 0.254478
vt 0.108330 0.552785
vt 0.726970 0.872646
vt 0.112592 0.477484
vt 0.040237 0.510549
vt 0.009951 0.516008
vt 0.012151 0.646492
vt 0.472733 0.543503
vt 0.455476 0.503754
vt 0.539421 0.521351
vt 0.213108 0.482894
vt 0.182036 0.431219
vt 0.891097 0.068721
vt 0.898778 0.106545
vt 0.881879 0.121071
vt 0.889544 0.340975
vt 0.869562 0.293439
vt 0.916420 0.288987
vt 0.095882 0.690518
vt 0.167901 0.733784
vt 0.844291 0.278741
vt 0.872336 0.247123
vt 0.533682 0.461454
vt 0.066684 0.778645
vt 0.926402 0.048000
vt 0.547087 0.707107
vt 0.291477 0.301000
vt 0.362294 0.108757
vt 0.354260 0.325526
vt 0.281814 0.385176
vt 0.192048 0.411386
vt 0.160879 0.341258
vt 0.717069 0.811655
vt 0.914540 0.730054
vt 0.908535 0.806482
vt 0.111872 0.127512
vt 0.258476 0.124620
vt 0.197512 0.269518
vt 0.110037 0.303507
vt 0.097829 0.381428
vt 0.718227 0.645685
vt 0.908752 0.651255
vt 0.503068 0.136665
vt 0.508112 0.302493
vt 0.474897 0.270668
vt 0.468626 0.173761
vt 0.556705 0.112153
vt 0.581285 0.112304
vt 0.624851 0.139371
vt 0.653642 0.192809
vt 0.641093 0.278206
vt 0.696499 0.198739
vt 0.612709 0.087596
vt 0.473594 0.108757
vt 0.553651 0.025707
vt 0.513363 0.347025
vt 0.455618 0.360550
vt 0.634977 0.355114
vt 0.689514 0.101823
vt 0.715442 0.276110
vt 0.434128 0.107968
vt 0.664323 0.380794
vt 0.660458 0.298088
vt 0.583944 0.326750
vt 0.752254 0.474290
vt 0.848812 0.460792
vt 0.980272 0.566904
vt 0.948785 0.483309
vt 0.828399 0.178635
vt 0.018031 0.113896
vt 0.026103 0.317490
vt 0.752871 0.298506
vt 0.643621 0.517161
vt 0.875267 0.042406
vt 0.475194 0.751888
vt 0.412576 0.760267
vt 0.097482 0.040582
vt 0.290822 0.044967
vt 0.119298 0.112949
vn 0.2793 -0.9542 -0.1073
vn 0.7969 -0.5511 -0.2477
vn -0.4142 -0.5278 0.7415
vn -0.0239 0.7916 -0.6106
vn 0.6491 0.5118 -0.5628
vn 0.1016 0.5115 0.8532
vn -0.7142 0.5171 -0.4718
vn -0.6164 -0.4526 -0.6444
vn 0.6279 0.5832 -0.5154
vn -0.0969 0.9517 0.2914
vn 0.8409 0.4899 0.2299
vn 0.5261 0.0430 0.8493
vn 0.2944 -0.4936 0.8184
vn 0.7940 -0.5989 -0.1038
vn -0.2155 -0.8262 0.5206
vn -0.7630 -0.6403 -0.0884
vn 0.3013 -0.4725 0.8282
vn 0.4475 -0.3770 -0.8110
vn -0.6266 0.1435 -0.7660
vn 0.3456 -0.8060 0.4805
vn 0.1230 -0.4709 -0.8736
vn -0.3951 -0.2714 0.8776
vn -0.6136 -0.5995 0.5139
vn -0.6696 -0.6520 -0.3557
vn -0.8113 0.2424 -0.5320
vn -0.7563 0.6538 -0.0238
vn -0.0434 0.5627 -0.8255
vn 0.4385 -0.6483 0.6225
vn 0.6523 -0.4915 -0.5770
vn -0.3620 -0.3214 -0.8750
vn -0.7038 0.2191 0.6758
vn 0.1057 0.4769 0.8726
vn -0.0176 -0.2390 -0.9709
vn 0.7809 -0.5417 -0.3112
vn 0.5771 0.6005 0.5535
vn 0.4358 -0.5854 0.6836
vn -0.0458 -0.4986 0.8656
vn -0.0783 -0.9691 -0.2341
vn -0.5560 0.5869 -0.5886
vn 0.5850 0.6007 -0.5450
vn 0.0795 -0.3090 -0.9477
vn -0.7451 -0.5007 -0.4406
vn -0.5480 -0.4866 0.6804
vn -0.5688 0.6022 0.5602
vn 0.7212 0.5390 -0.4351
vn -0.7304 0.5666 -0.3814
vn -0.1511 0.6051 0.7817
vn 0.1121 0.0882 0.9898
vn 0.2906 -0.0561 -0.9552
vn 0.7655 -0.6434 -0.0103
vn 0.7542 -0.6566 0.0027
vn 0.0527 0.0670 0.9964
vn -0.4881 -0.8409 0.2338
vn -0.0153 0.8395 -0.5431
vn 0.7201 0.5075 -0.4733
vn -0.8543 0.0575 0.5166
vn -0.5670 -0.3305 -0.7545
vn 0.9579 -0.0903 0.2727
vn 0.5191 -0.1842 -0.8346
vn -0.8399 -0.2084 -0.5012
vn -0.1181 0.5800 0.8060
vn -0.4110 -0.7479 0.5213
s 1
f 4/1/1 2/2/2 5/3/3
f 8/4/4 1/5/5 2/6/2
f 8/4/4 2/6/2 4/7/1
f 3/8/6 5/3/3 2/9/2
f 4/7/1 6/10/7 8/4/4
f 4/1/1 5/3/3 7/11/8
f 14/12/9 18/13/10 9/14/11
f 21/15/12 16/16/13 10/17/14
f 10/17/14 9/14/11 21/15/12
f 13/18/15 11/19/16 19/20/17
f 14/21/9 10/22/14 12/23/18
f 15/24/19 12/23/18 10/22/14
f 12/23/18 15/24/19 28/25/20
f 10/26/14 11/27/16 20/28/21
f 13/29/15 15/30/19 11/27/16
f 15/30/19 10/26/14 20/28/21
f 21/15/12 25/31/22 16/16/13
f 13/18/15 19/20/17 10/32/14
f 20/28/21 11/27/16 15/30/19
f 28/33/20 25/31/22 24/34/23
f 33/35/24 24/34/23 26/36/25
f 28/33/20 16/16/13 25/31/22
f 26/37/25 29/38/26 17/39/27
f 13/40/15 28/33/20 15/41/19
f 30/42/28 24/43/23 33/44/24
f 28/45/20 31/46/29 27/47/30
f 32/48/31 21/15/12 22/49/32
f 32/48/31 22/49/32 18/13/10
f 30/50/28 33/51/24 31/46/29
f 29/38/26 18/52/10 17/39/27
f 18/13/10 29/53/26 32/48/31
f 24/43/23 30/42/28 28/54/20
f 23/55/33 26/37/25 17/39/27
f 21/15/12 32/48/31 25/31/22
f 35/56/34 37/57/35 38/58/36
f 38/59/36 36/60/37 39/61/38
f 37/62/35 36/63/37 38/64/36
f 42/65/39 34/66/40 40/67/41
f 40/67/41 41/68/42 42/65/39
f 41/68/42 40/67/41 39/61/38
f 36/60/37 44/69/43 39/61/38
f 36/63/37 43/70/44 44/71/43
f 46/72/45 50/73/46 47/74/47
f 46/72/45 47/74/47 55/75/48
f 60/76/49 46/72/45 48/77/50
f 45/78/51 54/79/52 49/80/53
f 53/81/54 54/79/52 52/82/55
f 52/82/56 56/83/57 60/84/49
f 58/85/58 55/75/48 47/74/47
f 50/86/46 58/85/58 59/87/59
f 45/88/51 49/89/53 53/81/54
f 53/81/54 52/82/55 45/88/51
f 46/90/45 56/83/57 50/86/46
f 56/83/57 55/75/48 50/86/46
f 60/84/49 56/83/57 46/90/45
f 48/77/50 55/75/48 52/82/56
f 51/91/60 59/87/59 49/89/53
f 50/86/46 55/75/48 58/85/58
f 49/89/53 59/87/59 53/81/54
f 49/80/53 54/79/52 57/92/61
f 50/73/46 51/93/60 47/74/47
f 49/80/53 57/92/61 58/85/58
f 1/94/5 3/8/6 2/9/2
f 8/95/4 3/8/6 1/94/5
f 7/96/8 5/3/3 6/97/7
f 6/97/7 3/8/6 8/95/4
f 5/3/3 3/8/6 6/97/7
f 4/7/1 7/98/8 6/10/7
f 10/17/14 16/16/13 13/40/15
f 9/14/11 18/13/10 22/49/32
f 43/99/44 41/68/42 44/100/43
f 21/15/12 9/14/11 22/49/32
f 10/26/14 19/101/17 11/27/16
f 14/21/9 17/39/27 18/52/10
f 23/55/33 14/21/9 12/23/18
f 23/55/33 17/39/27 14/21/9
f 10/22/14 14/21/9 9/102/11
f 24/34/23 25/31/22 32/48/31
f 26/36/25 24/34/23 32/48/31
f 26/36/25 32/48/31 29/53/26
f 28/54/20 30/42/28 31/103/29
f 16/16/13 28/33/20 13/40/15
f 12/23/18 28/25/20 27/104/30
f 31/46/29 33/51/24 27/47/30
f 27/104/30 33/105/24 26/37/25
f 27/104/30 26/37/25 23/55/33
f 12/23/18 27/104/30 23/55/33
f 40/67/41 34/66/40 35/56/34
f 34/66/40 43/106/44 37/107/35
f 38/59/36 39/61/38 35/56/34
f 35/56/34 39/61/38 40/67/41
f 34/66/40 42/108/39 43/106/44
f 34/66/40 37/57/35 35/56/34
f 36/63/37 37/62/35 43/70/44
f 39/61/38 44/69/43 41/68/42
f 45/78/51 52/82/55 54/79/52
f 45/78/62 60/76/49 48/77/50
f 53/81/54 57/92/61 54/79/52
f 60/84/49 45/88/62 52/82/56
f 48/77/50 46/72/45 55/75/48
f 52/82/56 55/75/48 56/83/57
f 53/81/54 59/87/59 57/92/61
f 47/74/47 51/93/60 58/85/58
f 51/93/60 49/80/53 58/85/58
f 58/85/58 57/92/61 59/87/59
f 51/91/60 50/86/46 59/87/59
f 43/99/44 42/65/39 41/68/42
f 45/78/62 48/77/50 52/82/56
