# Blender v3.0.1 OBJ File: ''
# www.blender.org
o default-retopo_3
v -7.053400 3.872553 -0.914456
v -4.012817 1.757166 2.557950
v -5.372921 0.108802 4.700417
v -2.326992 -0.202827 -2.526570
v 3.639488 10.056628 -0.452904
v -6.167902 10.635005 -0.549495
v -4.063220 11.177734 0.053014
v -7.234197 12.493953 1.357486
v 3.355668 -0.292814 -2.009163
v 0.685506 5.625950 6.761895
v -5.078181 0.716276 0.131983
v 2.181146 -0.110739 5.471844
v -2.702071 9.808403 2.677125
v -5.599746 15.433011 -6.283092
v -4.323740 13.065049 2.692501
v 4.336255 9.588842 3.848668
v -1.390484 6.545230 -2.941236
v -4.518465 4.577948 5.299736
v 7.404827 2.266729 3.349879
v -1.673970 0.111684 4.985538
v -7.460916 8.633441 5.712693
v -8.354939 8.256955 1.191709
v 0.066901 5.674207 -4.477104
v 7.520584 2.713964 -0.234218
v 0.733926 15.382391 -2.617715
vt 0.034283 0.897469
vt 0.043525 0.752227
vt 0.149043 0.812315
vt 0.054216 0.288324
vt 0.073808 0.180503
vt 0.085803 0.333248
vt 0.106841 0.898023
vt 0.832650 0.431177
vt 0.954797 0.447536
vt 0.925900 0.563804
vt 0.431354 0.108003
vt 0.173319 0.078575
vt 0.304673 0.038113
vt 0.554796 0.043359
vt 0.684513 0.075228
vt 0.628579 0.211209
vt 0.250544 0.957047
vt 0.428286 0.903877
vt 0.302749 0.226270
vt 0.325923 0.448369
vt 0.233761 0.415471
vt 0.259753 0.665160
vt 0.364519 0.519368
vt 0.291147 0.694632
vt 0.212665 0.637294
vt 0.116873 0.691330
vt 0.268248 0.762265
vt 0.266067 0.731934
vt 0.432451 0.661962
vt 0.834972 0.037148
vt 0.902564 0.032539
vt 0.861043 0.082837
vt 0.606156 0.723555
vt 0.801183 0.808841
vt 0.743979 0.897528
vt 0.361825 0.028381
vt 0.841171 0.161709
vt 0.485229 0.265670
vt 0.864061 0.293587
vt 0.799163 0.276311
vt 0.258372 0.199970
vt 0.256683 0.782747
vt 0.217988 0.690144
vt 0.576178 0.671112
vt 0.444904 0.799451
vt 0.454977 0.741866
vt 0.373142 0.840847
vt 0.602140 0.441814
vt 0.698075 0.473036
vt 0.560837 0.555206
vt 0.488296 0.421848
vt 0.605048 0.312659
vt 0.614087 0.389497
vt 0.126636 0.627253
vt 0.236730 0.470839
vt 0.167167 0.654923
vt 0.691012 0.389773
vt 0.248071 0.027107
vt 0.201496 0.294437
vt 0.520639 0.090596
vt 0.523268 0.144968
vt 0.594308 0.924565
vt 0.052459 0.065017
vt 0.063988 0.584394
vt 0.041006 0.395161
vt 0.102760 0.587941
vt 0.802403 0.494015
vt 0.426259 0.210305
vt 0.025616 0.593612
vt 0.876694 0.367127
vt 0.435059 0.527727
vt 0.391021 0.486779
vt 0.439637 0.471038
vn -0.9842 -0.0540 -0.1689
vn -0.7843 -0.3890 -0.4832
vn -0.5128 -0.1781 0.8399
vn -0.8816 0.0393 0.4704
vn -0.8039 -0.5295 -0.2710
vn -0.5006 0.0470 0.8644
vn -0.7338 0.6793 0.0104
vn 0.4533 0.7926 -0.4077
vn -0.5125 -0.0616 -0.8564
vn 0.3464 0.7138 0.6086
vn -0.2487 -0.7286 0.6382
vn 0.2118 -0.7384 0.6402
vn -0.0113 0.2848 0.9585
vn 0.4917 0.7193 0.4907
vn -0.3613 -0.6738 -0.6446
vn -0.6753 -0.2007 0.7097
vn 0.6871 -0.4101 -0.5998
vn 0.7469 0.4138 -0.5204
vn 0.3198 0.7279 0.6065
vn -0.0897 0.2272 -0.9697
vn 0.9033 -0.2100 -0.3740
vn 0.8508 -0.3593 0.3835
vn 0.3630 -0.7660 -0.5305
vn -0.3431 0.3478 -0.8726
vn 0.0347 0.5235 -0.8513
s 1
f 22/1/1 1/2/2 18/3/3
f 2/4/4 1/5/2 11/6/5
f 22/1/1 18/3/3 21/7/6
f 8/8/7 22/9/1 21/10/6
f 5/11/8 6/12/9 13/13/10
f 20/14/11 12/15/12 10/16/13
f 21/7/6 18/3/3 13/17/10
f 18/3/3 16/18/14 13/17/10
f 4/19/15 20/20/11 3/21/16
f 7/22/17 25/23/18 15/24/19
f 7/22/17 8/25/7 25/23/18
f 18/3/3 1/2/2 2/26/4
f 8/27/7 15/28/19 25/29/18
f 3/30/16 20/31/11 2/32/4
f 23/33/20 5/34/8 24/35/21
f 5/11/8 13/13/10 16/36/14
f 12/15/12 19/37/22 10/16/13
f 20/20/11 4/19/15 9/38/23
f 24/39/21 16/40/14 19/37/22
f 17/41/24 11/6/5 1/5/2
f 10/42/13 18/3/3 20/43/11
f 17/44/24 4/45/15 11/46/5
f 18/3/3 10/47/13 16/18/14
f 13/48/10 15/49/19 21/50/6
f 12/51/12 24/52/21 19/53/22
f 7/54/17 14/55/25 8/56/7
f 5/11/8 17/41/24 6/12/9
f 7/57/17 15/49/19 13/48/10
f 7/58/17 13/13/10 6/12/9
f 11/59/5 4/19/15 3/21/16
f 5/11/8 16/60/14 24/61/21
f 24/35/21 9/62/23 23/33/20
f 6/12/9 1/5/2 22/63/1
f 6/64/9 14/65/25 7/66/17
f 8/8/7 21/10/6 15/67/19
f 9/38/23 24/52/21 12/51/12
f 17/41/24 5/11/8 23/68/20
f 2/26/4 20/43/11 18/3/3
f 14/65/25 6/64/9 8/69/7
f 17/41/24 1/5/2 6/12/9
f 9/62/23 4/45/15 23/33/20
f 6/70/9 22/9/1 8/8/7
f 17/44/24 23/33/20 4/45/15
f 9/38/23 12/51/12 20/20/11
f 16/40/14 10/16/13 19/37/22
f 2/71/4 11/72/5 3/73/16
