# Blender v3.0.1 OBJ File: ''
# www.blender.org
o grass_tall_Plane.001
v 0.884020 3.656210 -1.000000
v 0.475916 -0.070099 -1.000000
v 0.884021 3.656210 0.999999
v 0.475917 -0.070099 1.000000
v -0.748396 3.309326 1.000000
v -0.340292 -0.070099 1.000000
v -0.748396 3.309326 -1.000000
v -0.340292 -0.070099 -1.000000
v 1.067812 3.035321 0.816208
v 1.067812 -0.070099 0.408104
v -0.932188 3.035321 0.816208
v -0.932188 -0.070099 0.408104
v -0.932188 2.574940 -0.816208
v -0.932188 -0.070099 -0.408104
v 1.067812 2.574940 -0.816209
v 1.067812 -0.070099 -0.408105
v -0.062148 3.154807 -1.284254
v -0.350722 -0.070099 -0.995680
v 1.352065 3.154807 0.129959
v 1.063492 -0.070099 0.418533
v 0.197773 2.869042 1.284253
v 0.486346 -0.070099 0.995680
v -1.216441 2.869042 -0.129960
v -0.927868 -0.070099 -0.418534
v 1.352065 2.700021 -0.129961
v 1.063492 -0.070099 -0.418534
v -0.062148 2.700021 1.284253
v -0.350721 -0.070099 0.995680
v -1.216441 3.500085 0.129961
v -0.927868 -0.070099 0.418534
v 0.197772 3.500085 -1.284254
v 0.486345 -0.070099 -0.995680
vt 0.748740 0.646104
vt 0.499244 0.178474
vt 0.748740 0.178474
vt 0.499244 0.625231
vt 0.249748 0.200592
vt 0.499244 0.200592
vt 0.998236 0.589892
vt 0.748740 0.199165
vt 0.998236 0.199165
vt 0.249748 0.547127
vt 0.000252 0.213259
vt 0.249748 0.213259
vt 0.998236 0.995401
vt 0.748740 0.589892
vt 0.998236 0.589892
vt 0.499244 0.995401
vt 0.249748 0.625231
vt 0.499244 0.625231
vt 0.748740 0.995401
vt 0.499244 0.646104
vt 0.748740 0.646104
vt 0.249748 0.995401
vt 0.000252 0.547127
vt 0.249748 0.547127
vt 0.499244 0.646104
vt 0.249748 0.625231
vt 0.748740 0.589892
vt 0.000252 0.547127
vt 0.748740 0.995401
vt 0.249748 0.995401
vt 0.499244 0.995401
vt 0.000252 0.995401
vn -0.9941 0.1089 0.0000
vn 0.9928 0.1199 -0.0000
vn -0.0000 0.1303 -0.9915
vn 0.0000 0.1525 0.9883
vn -0.7015 0.1255 0.7015
vn 0.7004 0.1375 -0.7004
vn -0.6996 0.1458 -0.6996
vn 0.7025 0.1136 0.7025
s 1
f 2/1/1 3/2/1 1/3/1
f 6/4/2 7/5/2 5/6/2
f 10/7/3 11/8/3 9/9/3
f 14/10/4 15/11/4 13/12/4
f 18/13/5 19/14/5 17/15/5
f 22/16/6 23/17/6 21/18/6
f 26/19/7 27/20/7 25/21/7
f 30/22/8 31/23/8 29/24/8
f 2/1/1 4/25/1 3/2/1
f 6/4/2 8/26/2 7/5/2
f 10/7/3 12/27/3 11/8/3
f 14/10/4 16/28/4 15/11/4
f 18/13/5 20/29/5 19/14/5
f 22/16/6 24/30/6 23/17/6
f 26/19/7 28/31/7 27/20/7
f 30/22/8 32/32/8 31/23/8
